<svg width="49" height="49" viewBox="0 0 49 49" fill="none" xmlns="http://www.w3.org/2000/svg">
<path d="M24.5 0.000908852C10.9698 0.000908852 0 10.9694 0 24.4994C0 38.0311 10.9698 48.9994 24.5 48.9994C38.0302 48.9994 49 38.0311 49 24.4994C49 10.9709 38.0302 0.000908852 24.5 0.000908852ZM24.5 44.4057C13.5057 44.4057 4.59383 35.4939 4.59383 24.4995C4.59383 13.5052 13.5057 4.59319 24.5 4.59319C35.4943 4.59319 44.4062 13.5051 44.4062 24.4994C44.4062 35.4937 35.4943 44.4057 24.5 44.4057ZM34.4071 23.3709L20.3855 15.563C19.3642 14.9398 18.3595 15.4421 18.3595 16.6809V32.3317C18.3595 33.569 19.364 34.0743 20.3855 33.4481L34.3841 25.7551C35.6827 25.0155 35.2096 23.8226 34.4071 23.3709Z" fill="#228EE9"/>
</svg>
