<?xml version="1.0" encoding="UTF-8" standalone="no"?>
<!-- Generator: Adobe Illustrator 12.0.0, SVG Export Plug-In . SVG Version: 6.00 Build 51448)  -->
<svg
   xmlns:dc="http://purl.org/dc/elements/1.1/"
   xmlns:cc="http://web.resource.org/cc/"
   xmlns:rdf="http://www.w3.org/1999/02/22-rdf-syntax-ns#"
   xmlns:svg="http://www.w3.org/2000/svg"
   xmlns="http://www.w3.org/2000/svg"
   xmlns:sodipodi="http://sodipodi.sourceforge.net/DTD/sodipodi-0.dtd"
   xmlns:inkscape="http://www.inkscape.org/namespaces/inkscape"
   version="1.1"
   id="Layer_1"
   width="384"
   height="384"
   viewBox="0 0 384 384"
   overflow="visible"
   enable-background="new 0 0 384 384"
   xml:space="preserve"
   sodipodi:version="0.32"
   inkscape:version="0.44.1"
   sodipodi:docname="WIS County XX.svg"
   sodipodi:docbase="C:\Documents and Settings\onsons\My Documents\Wikipedia\Wisconsin"><metadata
   id="metadata34"><rdf:RDF><cc:Work
       rdf:about=""><dc:format>image/svg+xml</dc:format><dc:type
         rdf:resource="http://purl.org/dc/dcmitype/StillImage" /></cc:Work></rdf:RDF></metadata><defs
   id="defs32" /><sodipodi:namedview
   inkscape:window-height="714"
   inkscape:window-width="1280"
   inkscape:pageshadow="2"
   inkscape:pageopacity="0.0"
   guidetolerance="10.0"
   gridtolerance="10.0"
   objecttolerance="10.0"
   borderopacity="1.0"
   bordercolor="#666666"
   pagecolor="#ffffff"
   id="base"
   showguides="true"
   inkscape:guide-bbox="true"
   inkscape:zoom="0.49088542"
   inkscape:cx="-33.625018"
   inkscape:cy="166.33451"
   inkscape:window-x="-4"
   inkscape:window-y="-4"
   inkscape:current-layer="Layer_1"><sodipodi:guide
     orientation="horizontal"
     position="239.3634"
     id="guide1898" /><sodipodi:guide
     orientation="horizontal"
     position="85.559682"
     id="guide1900" /></sodipodi:namedview>
<g
   id="g3">
	<g
   id="g5">
		<path
   d="M0,24C0,10.7451172,10.7451172,0,24,0h336c13.2548828,0,24,10.7451172,24,24v336c0,13.2548828-10.7451172,24-24,24H24    c-13.2548828,0-24-10.7451172-24-24V24L0,24z"
   id="path7" />
		<path
   d="M192,192"
   id="path9" />
	</g>
	<g
   id="g11">
		<path
   fill="#FFFFFF"
   d="M8,62c0-17.6733398,14.3266602-32,32-32h304c17.6738281,0,32,14.3266602,32,32v248    c0,17.6738281-14.3261719,32-32,32H40c-17.6733398,0-32-14.3261719-32-32V62L8,62z"
   id="path13" />
		<path
   fill="#FFFFFF"
   d="M192,186"
   id="path15" />
	</g>
	<g
   id="g17">
		<path
   fill-rule="evenodd"
   clip-rule="evenodd"
   d="M82.0644531,103.7490234    c-1.7089844,3.1860352-4.1791992,5.6914063-7.4111328,7.5146484C71.4208984,113.0878906,67.9111328,114,64.125,114    c-6.0488281,0-10.8398438-2.1933594-14.3725586-6.5800781c-3.5322266-4.3867188-5.2983398-10.2280273-5.2983398-17.5239258    c0-7.3417969,1.7543945-13.1601563,5.2636719-17.4545898C53.2275391,68.1474609,58.0297852,66,64.125,66    c3.7861328,0,7.2724609,0.9003906,10.4589844,2.7011719c3.1860352,1.8007813,5.6796875,4.3173828,7.4804688,7.5498047    l-7.3422852,3.8789063c-1.0620117-1.5698242-2.1469727-2.7011719-3.2553711-3.394043    c-1.9853516-1.6621094-4.4326172-2.4936523-7.3417969-2.4936523c-3.8789063,0-6.8110352,1.6855469-8.796875,5.0566406    c-1.6162109,2.7705078-2.4238281,6.2568359-2.4238281,10.4589844c0,4.9868164,0.9926758,8.8886719,2.9785156,11.7055664    c1.9853516,2.8164063,4.7329102,4.2250977,8.2421875,4.2250977c2.078125,0,3.84375-0.4160156,5.2988281-1.2470703    c1.4541016-0.8310547,3.2207031-2.3779297,5.2983398-4.640625L82.0644531,103.7490234z"
   id="path19" />
		<path
   fill-rule="evenodd"
   clip-rule="evenodd"
   d="M134.9169922,89.7578125c0,7.2495117-1.7431641,13.1020508-5.2294922,17.5581055    S121.5493164,114,115.730957,114c-6.3720703,0-11.3588867-2.5625-14.9609375-7.6884766    c-3.1401367-4.4326172-4.7099609-9.9042969-4.7099609-16.4155273c0-7.3881836,1.7543945-13.2177734,5.2641602-17.4887695    C104.8334961,68.1357422,109.6357422,66,115.730957,66c5.7260742,0,10.3549805,2.1816406,13.8876953,6.5454102    S134.9169922,82.6464844,134.9169922,89.7578125z M126.6748047,89.8959961c0-4.8945313-0.9580078-8.7270508-2.8745117-11.4975586    s-4.605957-4.15625-8.0693359-4.15625c-3.5092773,0-6.2563477,1.3857422-8.2421875,4.15625    s-2.9785156,6.6030273-2.9785156,11.4975586c0,4.940918,0.9926758,8.8081055,2.9785156,11.6020508    c1.9858398,2.793457,4.7329102,4.1904297,8.2421875,4.1904297c3.9711914,0,6.8803711-1.7314453,8.7275391-5.1948242    C125.9360352,97.769043,126.6748047,94.2363281,126.6748047,89.8959961z"
   id="path21" />
		<path
   fill-rule="evenodd"
   clip-rule="evenodd"
   d="M187.9238281,94.4677734c0,5.6796875-1.7548828,10.3544922-5.2641602,14.0258789    C179.1503906,112.1645508,174.6708984,114,169.2226563,114c-5.4492188,0-9.9282227-1.8354492-13.4375-5.5063477    c-3.5092773-3.6713867-5.2641602-8.3461914-5.2641602-14.0258789V66.7617188h8.3120117v27.7060547    c0,2.3544922,0.484375,4.3632813,1.4541016,6.0258789c2.0322266,3.3706055,5.0102539,5.0561523,8.9355469,5.0561523    c3.9707031,0,6.9492188-1.6855469,8.9345703-5.0561523c1.0161133-1.6625977,1.5239258-3.6713867,1.5239258-6.0258789V66.7617188    h8.2426758V94.4677734z"
   id="path23" />
		<polygon
   fill-rule="evenodd"
   clip-rule="evenodd"
   points="242.1972656,113.1689453 235.0625,113.1689453 212.8984375,81.2382813     212.8984375,113.1689453 204.7949219,113.1689453 204.7949219,66.7617188 212.8984375,66.7617188 234.2314453,97.3764648     234.2314453,66.7617188 242.1972656,66.7617188   "
   id="polygon25" />
		<polygon
   fill-rule="evenodd"
   clip-rule="evenodd"
   points="289.6816406,74.9350586 276.3144531,74.9350586     276.3144531,113.1689453 268.2109375,113.1689453 268.2109375,74.9350586 254.8417969,74.9350586 254.8417969,66.7617188     289.6816406,66.7617188   "
   id="polygon27" />
		<polygon
   fill-rule="evenodd"
   clip-rule="evenodd"
   points="345.5458984,66.7617188 326.0136719,94.2597656     326.0136719,113.1689453 317.7021484,113.1689453 317.7021484,94.2597656 298.1699219,66.7617188 308.4199219,66.7617188     321.9267578,85.6708984 335.2949219,66.7617188   "
   id="polygon29" />
	</g>
</g>
<path
   style="font-size:229.49571228px;font-style:normal;font-variant:normal;font-weight:normal;font-stretch:normal;text-align:center;line-height:125%;writing-mode:lr-tb;text-anchor:middle;fill:black;fill-opacity:1;stroke:none;stroke-width:1px;stroke-linecap:butt;stroke-linejoin:miter;stroke-opacity:1;font-family:Roadgeek 2005 Series D"
   d="M 151.53639,298.44031 L 126.75046,247.26461 L 101.97154,298.44031 L 74.426167,298.44031 L 112.75716,219.03289 L 77.185606,144.6751 L 104.72397,144.6751 L 126.75046,190.57704 L 148.78395,144.6751 L 176.32232,144.6751 L 140.29553,219.03289 L 179.08176,298.44031 L 151.53639,298.44031 z M 271.21482,298.44031 L 246.42889,247.26461 L 221.64996,298.44031 L 194.1046,298.44031 L 232.43559,219.03289 L 196.86403,144.6751 L 224.4024,144.6751 L 246.42889,190.57704 L 268.46238,144.6751 L 296.00075,144.6751 L 259.97396,219.03289 L 298.76019,298.44031 L 271.21482,298.44031 z "
   id="text1902" />

</svg>