<svg xmlns:dc="http://purl.org/dc/elements/1.1/" xmlns:cc="http://creativecommons.org/ns#" xmlns:rdf="http://www.w3.org/1999/02/22-rdf-syntax-ns#" xmlns:svg="http://www.w3.org/2000/svg" xmlns="http://www.w3.org/2000/svg" id="svg6481" version="1.1" viewBox="0 0 33.637214 35.521824" height="35.521824mm" width="33.637215mm">
  <defs id="defs6475"/>
  <metadata id="metadata6478">
    <rdf:RDF>
      <cc:Work rdf:about="">
        <dc:format>image/svg+xml</dc:format>
        <dc:type rdf:resource="http://purl.org/dc/dcmitype/StillImage"/>
        <dc:title/>
      </cc:Work>
    </rdf:RDF>
  </metadata>
  <g transform="translate(-45.805867,-42.218115)" id="layer1">
    <g id="g7167" transform="matrix(0.35277777,0,0,-0.35277777,-22.941815,210.47557)">
      <g id="g38" transform="translate(278.35827,465.26363)">
        <path d="M 0,0 -2.482,8.852 -11.569,-3.601 V -8.81 L -38,-41.735 l -0.43,0.236 c -0.903,0.496 -1.929,0.757 -2.965,0.757 -3.404,0 -6.176,-2.77 -6.176,-6.175 0,-3.405 2.772,-6.175 6.176,-6.175 3.406,0 6.175,2.77 6.175,6.175 0,1.145 -0.321,2.269 -0.928,3.248 l -0.242,0.385 29.408,30.735 4.827,0.622 11.187,10.607 z" style="fill: #ffc800;fill-opacity:1;fill-rule:nonzero;stroke:none;" id="path40"/>
      </g>
      <g id="g42" transform="translate(260.78497,439.95013)">
        <path d="m 0,0 c 4.945,-5.47 7.962,-12.717 7.962,-20.655 0,-17.002 -13.832,-30.835 -30.836,-30.835 -17.002,0 -30.834,13.833 -30.834,30.835 0,17.003 13.832,30.836 30.834,30.836 6.61,0 12.736,-2.099 17.762,-5.654 l 5.87,7.313 c -6.639,4.841 -14.805,7.707 -23.632,7.707 -22.168,0 -40.201,-18.035 -40.201,-40.202 0,-22.167 18.033,-40.202 40.201,-40.202 22.168,0 40.203,18.035 40.203,40.202 0,10.596 -4.128,20.239 -10.85,27.428 z" style="fill: #ffffff;fill-opacity:1;fill-rule:nonzero;stroke:none;" id="path44"/>
      </g>
      <g id="g46" transform="translate(249.77427,428.44473)">
        <path d="m 0,0 c 1.962,-2.536 3.141,-5.705 3.141,-9.15 0,-8.272 -6.732,-15.003 -15.004,-15.003 -8.273,0 -15.003,6.731 -15.003,15.003 0,8.272 6.73,15.004 15.003,15.004 2.863,0 5.532,-0.821 7.81,-2.219 l 5.9,7.348 c -3.91,2.67 -8.629,4.237 -13.71,4.237 -13.438,0 -24.37,-10.932 -24.37,-24.37 0,-13.437 10.932,-24.37 24.37,-24.37 13.438,0 24.371,10.933 24.371,24.37 0,6.104 -2.272,11.676 -5.993,15.957 z" style="fill: #f7f7f7;fill-opacity:1;fill-rule:nonzero;stroke:none;" id="path48"/>
      </g>
    </g>
  </g>
</svg>