<svg width="25" height="25" viewBox="0 0 25 25" fill="none" xmlns="http://www.w3.org/2000/svg">
<g clip-path="url(#clip0)">
<path d="M22.6213 1.07422H6.1636C5.95856 1.07422 5.79224 1.24054 5.79224 1.44558C5.79224 1.65062 5.95856 1.81675 6.1636 1.81675H22.6213C23.5235 1.81675 24.2575 2.5507 24.2575 3.45268V16.6651C24.2575 17.5673 23.5235 18.301 22.6213 18.301H2.37846C1.47648 18.301 0.742531 17.5673 0.742531 16.6651V3.45268C0.742531 2.5507 1.47648 1.81675 2.37846 1.81675H4.67835C4.88339 1.81675 5.04971 1.65062 5.04971 1.44558C5.04971 1.24054 4.88339 1.07422 4.67835 1.07422H2.37846C1.06697 1.07422 0 2.14119 0 3.45268V16.6651C0 17.9766 1.06697 19.0435 2.37846 19.0435H8.34885L7.62158 21.4199H6.2582C5.56202 21.4199 4.99592 21.9862 4.99592 22.6822C4.99592 23.3784 5.56202 23.9445 6.2582 23.9445H18.7418C19.4378 23.9445 20.0041 23.3784 20.0041 22.6822C20.0041 21.9862 19.4378 21.4199 18.7418 21.4199H17.3784L16.6512 19.0435H22.6213C23.933 19.0435 25 17.9766 25 16.6651V3.45268C25 2.14119 23.933 1.07422 22.6213 1.07422ZM19.2616 22.6824C19.2616 22.9689 19.0283 23.2021 18.7418 23.2021H6.2582C5.97153 23.2021 5.73845 22.9689 5.73845 22.6824C5.73845 22.3957 5.97153 22.1626 6.2582 22.1626H18.7418C19.0283 22.1626 19.2616 22.3957 19.2616 22.6824ZM16.6018 21.4199H8.39825L9.12533 19.0437H15.8747L16.6018 21.4199Z" fill="black"/>
<path d="M22.6486 13.1607C22.8539 13.1607 23.02 12.9944 23.02 12.7894V3.45288C23.02 3.23296 22.8413 3.05424 22.6214 3.05424H2.37828C2.15894 3.05424 1.98041 3.23296 1.98041 3.45288V15.5539C1.98041 15.7589 2.14654 15.925 2.35158 15.925H22.6486C22.8539 15.925 23.02 15.7589 23.02 15.5539V14.2746C23.02 14.0696 22.8539 13.9034 22.6486 13.9034C22.4436 13.9034 22.2775 14.0696 22.2775 14.2746V15.1825H2.72294V3.79677H22.2775V12.7894C22.2775 12.9946 22.4436 13.1607 22.6486 13.1607Z" fill="black"/>
<path d="M12.8086 16.8405C12.7273 16.7169 12.5721 16.6536 12.4273 16.6826C12.269 16.7143 12.146 16.8497 12.1307 17.0107C12.0987 17.3464 12.5137 17.5484 12.7573 17.3145C12.8858 17.1909 12.9064 16.9889 12.8086 16.8405Z" fill="black"/>
</g>
<defs>
<clipPath id="clip0">
<rect width="25" height="25" fill="white"/>
</clipPath>
</defs>
</svg>
