<svg width="13" height="11" viewBox="0 0 13 11" fill="none" xmlns="http://www.w3.org/2000/svg">
<path d="M6.49999 2.41565L1.8636 6.23787C1.8636 6.24326 1.86225 6.2512 1.85954 6.26201C1.85688 6.27275 1.85547 6.28054 1.85547 6.28608V10.1565C1.85547 10.2962 1.90656 10.4173 2.00871 10.5193C2.11084 10.6213 2.23177 10.6727 2.37155 10.6727H5.46778V7.57628H7.53223V10.6728H10.6284C10.7682 10.6728 10.8893 10.6216 10.9913 10.5193C11.0934 10.4174 11.1447 10.2962 11.1447 10.1565V6.28608C11.1447 6.26461 11.1417 6.2484 11.1365 6.23787L6.49999 2.41565Z" fill="#0F0F0F" fill-opacity="0.6"/>
<path d="M12.9103 5.36697L11.1445 3.89943V0.609525C11.1445 0.534315 11.1204 0.472464 11.0718 0.424056C11.0237 0.375704 10.9619 0.351529 10.8865 0.351529H9.33834C9.26304 0.351529 9.20122 0.375704 9.15278 0.424056C9.10446 0.472464 9.08031 0.534343 9.08031 0.609525V2.18188L7.11288 0.536885C6.94105 0.397112 6.73675 0.32724 6.50019 0.32724C6.26365 0.32724 6.05938 0.397112 5.88738 0.536885L0.0896012 5.36697C0.0358556 5.4099 0.00639857 5.46768 0.000919507 5.54027C-0.00453131 5.61279 0.01425 5.67614 0.0573199 5.72986L0.557242 6.32657C0.600312 6.37492 0.656684 6.40449 0.726584 6.41531C0.791118 6.42073 0.855653 6.40187 0.920187 6.35888L6.50002 1.70613L12.0799 6.35885C12.123 6.39636 12.1793 6.41508 12.2492 6.41508H12.2735C12.3433 6.40446 12.3995 6.3747 12.4428 6.32646L12.9428 5.72983C12.9858 5.676 13.0046 5.61277 12.999 5.54015C12.9935 5.46777 12.964 5.40998 12.9103 5.36697Z" fill="#0F0F0F" fill-opacity="0.6"/>
</svg>
