<svg width="23" height="23" viewBox="0 0 23 23" fill="none" xmlns="http://www.w3.org/2000/svg">
<path d="M11.4995 0C5.14908 0 0 5.14908 0 11.4995C0 17.8499 5.14908 23 11.4995 23C17.8499 23 23 17.8499 23 11.4995C23 5.14908 17.8499 0 11.4995 0ZM13.8935 17.8227C13.3015 18.0563 12.8303 18.2335 12.477 18.3562C12.1245 18.4789 11.7147 18.5402 11.2483 18.5402C10.5318 18.5402 9.97397 18.365 9.57676 18.0154C9.17955 17.6659 8.98193 17.223 8.98193 16.6846C8.98193 16.4753 8.99653 16.2611 9.02573 16.043C9.05591 15.825 9.10362 15.5796 9.16885 15.3041L9.90971 12.6872C9.97494 12.4361 10.0314 12.1975 10.0762 11.9756C10.121 11.7517 10.1424 11.5462 10.1424 11.3593C10.1424 11.0264 10.0733 10.7927 9.936 10.6613C9.79678 10.5299 9.5349 10.4656 9.14451 10.4656C8.95369 10.4656 8.75704 10.4938 8.55551 10.5532C8.35594 10.6146 8.18264 10.6701 8.04051 10.7246L8.23619 9.91848C8.72102 9.72085 9.1854 9.55145 9.62836 9.41126C10.0713 9.26912 10.4899 9.19903 10.8842 9.19903C11.5959 9.19903 12.145 9.37232 12.5315 9.715C12.916 10.0587 13.1098 10.5055 13.1098 11.0546C13.1098 11.1685 13.0961 11.3691 13.0698 11.6553C13.0436 11.9425 12.9939 12.2044 12.9219 12.4448L12.1849 15.0539C12.1245 15.2632 12.071 15.5027 12.0223 15.7705C11.9746 16.0382 11.9512 16.2426 11.9512 16.3799C11.9512 16.7265 12.0281 16.963 12.1839 17.0886C12.3377 17.2142 12.6074 17.2775 12.989 17.2775C13.1691 17.2775 13.3707 17.2454 13.5985 17.1831C13.8243 17.1208 13.9879 17.0653 14.0911 17.0176L13.8935 17.8227ZM13.763 7.23247C13.4193 7.55179 13.0056 7.71145 12.5217 7.71145C12.0389 7.71145 11.6222 7.55179 11.2756 7.23247C10.931 6.91314 10.7567 6.5247 10.7567 6.07103C10.7567 5.61833 10.9319 5.22891 11.2756 4.90667C11.6222 4.58345 12.0389 4.42281 12.5217 4.42281C13.0056 4.42281 13.4203 4.58345 13.763 4.90667C14.1067 5.22891 14.279 5.61833 14.279 6.07103C14.279 6.52567 14.1067 6.91314 13.763 7.23247Z" fill="#2396F7"/>
</svg>
