<svg width="27" height="28" viewBox="0 0 27 28" fill="none" xmlns="http://www.w3.org/2000/svg">
<path d="M26.9732 22.2232C26.9732 21.6652 26.75 21.1071 26.3482 20.7054L19.7857 14.1429L26.3482 7.58036C26.75 7.17857 26.9732 6.62054 26.9732 6.0625C26.9732 5.50446 26.75 4.94643 26.3482 4.54464L23.3125 1.50893C22.9107 1.10714 22.3527 0.883927 21.7946 0.883927C21.2366 0.883927 20.6786 1.10714 20.2768 1.50893L13.7143 8.07143L7.15179 1.50893C6.75 1.10714 6.19196 0.883927 5.63393 0.883927C5.07589 0.883927 4.51786 1.10714 4.11607 1.50893L1.08036 4.54464C0.678572 4.94643 0.455357 5.50446 0.455357 6.0625C0.455357 6.62054 0.678572 7.17857 1.08036 7.58036L7.64286 14.1429L1.08036 20.7054C0.678572 21.1071 0.455357 21.6652 0.455357 22.2232C0.455357 22.7812 0.678572 23.3393 1.08036 23.7411L4.11607 26.7768C4.51786 27.1786 5.07589 27.4018 5.63393 27.4018C6.19196 27.4018 6.75 27.1786 7.15179 26.7768L13.7143 20.2143L20.2768 26.7768C20.6786 27.1786 21.2366 27.4018 21.7946 27.4018C22.3527 27.4018 22.9107 27.1786 23.3125 26.7768L26.3482 23.7411C26.75 23.3393 26.9732 22.7812 26.9732 22.2232Z" fill="white"/>
</svg>
