<svg width="35" height="29" viewBox="0 0 35 29" fill="none" xmlns="http://www.w3.org/2000/svg">
<path d="M34.2857 24.7143C34.2857 23.933 33.6384 23.2857 32.8571 23.2857H1.42857C0.647321 23.2857 0 23.933 0 24.7143V27.5714C0 28.3527 0.647321 29 1.42857 29H32.8571C33.6384 29 34.2857 28.3527 34.2857 27.5714V24.7143ZM34.2857 13.2857C34.2857 12.5045 33.6384 11.8571 32.8571 11.8571H1.42857C0.647321 11.8571 0 12.5045 0 13.2857V16.1429C0 16.9241 0.647321 17.5714 1.42857 17.5714H32.8571C33.6384 17.5714 34.2857 16.9241 34.2857 16.1429V13.2857ZM34.2857 1.85714C34.2857 1.07589 33.6384 0.428571 32.8571 0.428571H1.42857C0.647321 0.428571 0 1.07589 0 1.85714V4.71429C0 5.49554 0.647321 6.14286 1.42857 6.14286H32.8571C33.6384 6.14286 34.2857 5.49554 34.2857 4.71429V1.85714Z" fill="white"/>
</svg>
