<svg width="25" height="25" viewBox="0 0 25 25" fill="none" xmlns="http://www.w3.org/2000/svg">
<path d="M12.5 0C5.56818 0 0 5.56818 0 12.5C0 19.4318 5.56818 25 12.5 25C19.4318 25 25 19.4318 25 12.5C25 5.56818 19.4318 0 12.5 0ZM19.7159 8.57955L10.625 18.0114C10.5114 18.125 10.3977 18.1818 10.2273 18.1818C10.0568 18.1818 9.88636 18.125 9.82955 18.0114L5.39773 13.2386L5.28409 13.125C5.17045 13.0114 5.11364 12.8409 5.11364 12.7273C5.11364 12.6136 5.17045 12.4432 5.28409 12.3295L6.07955 11.5341C6.30682 11.3068 6.64773 11.3068 6.875 11.5341L6.93182 11.5909L10.0568 14.9432C10.1705 15.0568 10.3409 15.0568 10.4545 14.9432L18.0682 7.04545H18.125C18.3523 6.81818 18.6932 6.81818 18.9205 7.04545L19.7159 7.84091C19.9432 8.01136 19.9432 8.35227 19.7159 8.57955Z" fill="#C20028"/>
</svg>
