<svg width="19" height="19" viewBox="0 0 19 19" fill="none" xmlns="http://www.w3.org/2000/svg">
<g opacity="0.8">
<path d="M9.49999 18.0574C14.2132 18.0574 18.0574 14.2279 18.0574 9.49999C18.0574 4.77208 14.2132 0.942627 9.49999 0.942627C4.78681 0.942627 0.942627 4.78681 0.942627 9.49999C0.942627 14.2132 4.78681 18.0574 9.49999 18.0574ZM9.49999 2.15038C13.5504 2.15038 16.8496 5.4496 16.8496 9.49999C16.8496 13.5504 13.5504 16.8496 9.49999 16.8496C5.4496 16.8496 2.15038 13.5504 2.15038 9.49999C2.15038 5.4496 5.4496 2.15038 9.49999 2.15038Z" fill="black"/>
<path d="M7.52635 13.7713C7.64418 13.8892 7.79147 13.9481 7.95349 13.9481C8.10077 13.9481 8.26279 13.8892 8.38062 13.7713L12.269 9.88297C12.3868 9.76514 12.4457 9.61786 12.4457 9.45584C12.4457 9.29383 12.3868 9.14654 12.269 9.02871L8.38062 5.14034C8.14496 4.90468 7.76201 4.90468 7.52635 5.14034C7.29069 5.376 7.29069 5.75894 7.52635 5.9946L10.9876 9.45584L7.52635 12.9171C7.29069 13.1527 7.29069 13.5357 7.52635 13.7713Z" fill="black"/>
</g>
</svg>
