<svg width="23" height="23" viewBox="0 0 23 23" fill="none" xmlns="http://www.w3.org/2000/svg">
<g clip-path="url(#clip0)">
<path d="M13.8677 19.1666C13.1278 19.1666 12.526 19.7684 12.526 20.5083C12.526 21.2481 13.1278 21.85 13.8677 21.85C14.6075 21.85 15.2094 21.2481 15.2094 20.5083C15.2094 19.7684 14.6071 19.1666 13.8677 19.1666ZM13.8677 21.0833C13.5506 21.0833 13.2927 20.8253 13.2927 20.5083C13.2927 20.1913 13.5506 19.9333 13.8677 19.9333C14.1847 19.9333 14.4427 20.1913 14.4427 20.5083C14.4427 20.8253 14.1847 21.0833 13.8677 21.0833Z" fill="black"/>
<path d="M15.5927 14.1832C16.4383 14.1832 17.126 13.4955 17.126 12.6498C17.126 11.8042 16.4383 11.1165 15.5927 11.1165C14.747 11.1165 14.0593 11.8042 14.0593 12.6498C14.0593 13.4955 14.7467 14.1832 15.5927 14.1832ZM15.5927 11.8831C16.0155 11.8831 16.3594 12.227 16.3594 12.6498C16.3594 13.0726 16.0155 13.4165 15.5927 13.4165C15.1699 13.4165 14.826 13.0726 14.826 12.6498C14.826 12.227 15.1699 11.8831 15.5927 11.8831Z" fill="black"/>
<path d="M6.39256 4.59969C6.4907 4.59969 6.58883 4.56213 6.66358 4.48738L7.43026 3.7207C7.58015 3.57081 7.58015 3.32854 7.43026 3.17865C7.28038 3.02877 7.0381 3.02877 6.88822 3.17865L6.12154 3.94533C5.97165 4.09522 5.97165 4.33749 6.12154 4.48738C6.19629 4.56213 6.29443 4.59969 6.39256 4.59969Z" fill="black"/>
<path d="M20.1928 11.4032C20.1928 11.0659 20.0613 10.7488 19.8229 10.5104L19.6093 10.2969C19.9731 9.97488 20.1924 9.50913 20.1924 9.0081C20.1924 8.05703 19.4184 7.28307 18.4674 7.28307C18.3976 7.28307 18.3286 7.28997 18.2604 7.2984C18.2688 7.22979 18.2757 7.16155 18.2757 7.0914C18.2757 6.14034 17.5017 5.36637 16.5507 5.36637C16.4809 5.36637 16.4119 5.37327 16.3437 5.3817C16.3521 5.31309 16.359 5.24485 16.359 5.1747C16.359 4.22364 15.585 3.44967 14.634 3.44967C14.5642 3.44967 14.4952 3.45657 14.427 3.46501C14.4354 3.39639 14.4423 3.32815 14.4423 3.258C14.4423 2.30694 13.6683 1.53297 12.7173 1.53297C12.2159 1.53297 11.7505 1.75263 11.4285 2.11603L11.1241 1.81166L9.68161 0.369154C9.18902 -0.123438 8.38784 -0.123438 7.89601 0.369154L3.17633 5.08883C2.68451 5.58143 2.68451 6.38222 3.17633 6.87481L4.61884 8.31732L6.50104 10.1995C5.98123 10.497 5.62587 11.0509 5.62587 11.6915C5.62587 12.2906 5.9337 12.8189 6.39907 13.1282C6.42245 13.1593 6.44967 13.19 6.48609 13.221L10.6093 17.3285V18.017H9.84261V23.0004H16.7427H19.8094V18.017H19.0428V16.8554C19.7761 16.2341 20.1928 15.3405 20.1928 14.3749C20.1928 13.7078 19.9846 13.06 19.604 12.5149L19.8229 12.296C20.0613 12.0576 20.1928 11.7405 20.1928 11.4032ZM19.4261 9.0081C19.4261 9.30251 19.2904 9.57506 19.0669 9.75446L17.721 8.40856C17.9004 8.18507 18.1734 8.04937 18.4674 8.04937C18.996 8.04975 19.4261 8.47947 19.4261 9.0081ZM17.5094 7.0914C17.5094 7.38581 17.3737 7.65836 17.1502 7.83776L15.8043 6.49186C15.9837 6.26837 16.2567 6.13267 16.5507 6.13267C17.0793 6.13305 17.5094 6.56278 17.5094 7.0914ZM15.5927 5.1747C15.5927 5.46911 15.457 5.74166 15.2335 5.92106L13.8876 4.57516C14.067 4.35167 14.34 4.21597 14.634 4.21597C15.1626 4.21635 15.5927 4.64608 15.5927 5.1747ZM12.7177 2.29965C13.2463 2.29965 13.676 2.72938 13.676 3.258C13.676 3.55241 13.5403 3.82496 13.3168 4.00437L11.9709 2.65846C12.1503 2.43536 12.4233 2.29965 12.7177 2.29965ZM3.71838 6.33315C3.52517 6.13957 3.52517 5.82485 3.71838 5.63126L8.43805 0.91158C8.48597 0.863662 8.54194 0.827628 8.60136 0.803478C8.62819 0.792361 8.65847 0.792744 8.68684 0.786611C8.75508 0.772044 8.82254 0.772044 8.89078 0.786611C8.91915 0.792744 8.94943 0.792361 8.97626 0.803478C9.03568 0.827628 9.09127 0.863662 9.13957 0.91158L10.04 1.81205L4.61884 7.23324L3.71838 6.33315ZM10.5821 2.35409L11.0336 2.80566L12.9503 4.72236L13.17 4.94201L14.867 6.63906L15.0867 6.85871L16.7837 8.55576L17.0034 8.77541L18.9201 10.6921L19.2804 11.0525C19.474 11.246 19.474 11.5604 19.2804 11.754L19.1129 11.9219L14.5611 16.474C14.3683 16.6672 14.0528 16.668 13.8592 16.474L10.8021 13.4165H11.1839C12.135 13.4165 12.9089 12.6425 12.9089 11.6915C12.9089 10.7404 12.135 9.96645 11.1839 9.96645H7.35167L5.1605 7.77528L10.5821 2.35409ZM7.1439 10.7569L7.30299 10.7389C7.3187 10.7366 7.33442 10.7331 7.35052 10.7331H11.1839C11.7125 10.7331 12.1423 11.1629 12.1423 11.6915C12.1423 12.2201 11.7125 12.6498 11.1839 12.6498H10.0354H8.95135H7.35052C6.82189 12.6498 6.39217 12.2201 6.39217 11.6915C6.39255 11.2342 6.71494 10.852 7.1439 10.7569ZM10.6093 22.2333V18.7833H13.8393C15.0173 18.7833 15.976 19.742 15.976 20.92V22.2333H10.6093ZM19.0428 22.2333H16.7427V20.92C16.7427 20.0744 16.377 19.3146 15.7982 18.7833H19.0428V22.2333ZM19.0523 13.0669C19.2954 13.4583 19.4261 13.911 19.4261 14.3749C19.4261 15.1626 19.0627 15.8875 18.4287 16.3648L18.2761 16.4798V18.0166H13.8389H11.3756V16.9747L11.2403 16.8601C11.223 16.8451 11.2046 16.8313 11.1713 16.8064L7.76836 13.4161H9.71764L13.3168 17.0157C13.5633 17.2618 13.8865 17.3848 14.2096 17.3848C14.5332 17.3848 14.8567 17.2618 15.1028 17.0157L19.0523 13.0669Z" fill="black"/>
</g>
<defs>
<clipPath id="clip0">
<rect width="23" height="23" fill="white"/>
</clipPath>
</defs>
</svg>
