<svg width="23" height="23" viewBox="0 0 23 23" fill="none" xmlns="http://www.w3.org/2000/svg">
<path d="M19.3085 0H3.69152C2.94139 0 2.33109 0.610306 2.33109 1.36043V21.6396C2.33109 22.3897 2.94134 23 3.69152 23H19.3085C20.0586 23 20.6689 22.3897 20.6689 21.6396V1.36043C20.6689 0.610306 20.0586 0 19.3085 0ZM19.8919 21.6396C19.8919 21.9612 19.6301 22.2229 19.3085 22.2229H3.69152C3.36986 22.2229 3.10815 21.9612 3.10815 21.6396V1.36043C3.10815 1.03878 3.36986 0.777064 3.69152 0.777064H19.3085C19.6301 0.777064 19.8919 1.03878 19.8919 1.36043V21.6396Z" fill="black"/>
<path d="M19.1148 2.48183H3.88515C3.74212 2.48183 3.62613 2.59782 3.62613 2.74086V20.2591C3.62613 20.4022 3.74212 20.5182 3.88515 20.5182H19.1148C19.2578 20.5182 19.3738 20.4022 19.3738 20.2591V2.74086C19.3738 2.59777 19.2578 2.48183 19.1148 2.48183ZM18.8558 20.0001H4.14417V2.99988H18.8558V20.0001Z" fill="black"/>
<path d="M11.5001 21.0573C11.3976 21.0573 11.2976 21.0987 11.2251 21.1713C11.153 21.2433 11.1116 21.3438 11.1116 21.4458C11.1116 21.5479 11.153 21.6484 11.2251 21.7204C11.2976 21.7929 11.3976 21.8343 11.5001 21.8343C11.6022 21.8343 11.7027 21.7929 11.7747 21.7204C11.8472 21.6484 11.8887 21.5479 11.8887 21.4458C11.8887 21.3438 11.8472 21.2433 11.7747 21.1713C11.7022 21.0987 11.6022 21.0573 11.5001 21.0573Z" fill="black"/>
<path d="M11.5001 1.9296C11.568 1.9296 11.6348 1.90215 11.683 1.85397C11.7312 1.80579 11.7591 1.73896 11.7591 1.67058C11.7591 1.6022 11.7312 1.53589 11.683 1.48719C11.6348 1.43902 11.568 1.41156 11.5001 1.41156C11.4317 1.41156 11.3649 1.43902 11.3167 1.48719C11.2685 1.53537 11.2411 1.6022 11.2411 1.67058C11.2411 1.73896 11.2685 1.80579 11.3167 1.85397C11.3649 1.90215 11.4317 1.9296 11.5001 1.9296Z" fill="black"/>
</svg>
