<svg width="61" height="61" viewBox="0 0 61 61" fill="none" xmlns="http://www.w3.org/2000/svg">
<path d="M61 30.5C61 13.6829 47.3171 0 30.5 0C13.6829 0 0 13.6829 0 30.5C0 39.3827 3.81971 47.3892 9.89974 52.968L9.87091 52.9935L10.8602 53.8275C10.9245 53.8819 10.9944 53.9262 11.0587 53.9795C11.5845 54.4153 12.129 54.829 12.6836 55.2294C12.8632 55.3592 13.0429 55.4889 13.2259 55.6154C13.8182 56.0235 14.4259 56.4106 15.047 56.7777C15.1823 56.8575 15.3188 56.9352 15.4552 57.0128C16.1351 57.3999 16.8293 57.7648 17.5403 58.0997C17.5924 58.1241 17.6456 58.1463 17.6978 58.1707C20.0147 59.2476 22.4879 60.0384 25.0743 60.5053C25.142 60.5175 25.2096 60.5297 25.2784 60.5419C26.0814 60.6806 26.8932 60.7915 27.7151 60.8658C27.8149 60.8747 27.9147 60.8802 28.0156 60.8891C28.8341 60.9567 29.6615 61 30.5 61C31.3307 61 32.1503 60.9567 32.9644 60.8913C33.0675 60.8824 33.1707 60.8769 33.2738 60.868C34.089 60.7937 34.8942 60.6861 35.6894 60.5497C35.7582 60.5375 35.8281 60.5253 35.8968 60.512C38.4444 60.0551 40.8822 59.282 43.1691 58.2328C43.2534 58.194 43.3388 58.1574 43.4231 58.1175C44.1074 57.7958 44.7762 57.4487 45.4317 57.0794C45.5947 56.9873 45.7567 56.8941 45.9186 56.7988C46.5153 56.4472 47.102 56.0801 47.6721 55.6897C47.8772 55.5499 48.078 55.4024 48.2809 55.256C48.7678 54.9055 49.2459 54.544 49.7106 54.1658C49.8137 54.0826 49.9246 54.0105 50.0255 53.9251L51.0404 53.0778L51.0104 53.0523C57.1437 47.4713 61 39.4282 61 30.5ZM2.21818 30.5C2.21818 14.9051 14.9051 2.21818 30.5 2.21818C46.0949 2.21818 58.7818 14.9051 58.7818 30.5C58.7818 38.9036 55.0941 46.4587 49.2558 51.6426C48.9298 51.4175 48.6015 51.2156 48.2654 51.047L38.8747 46.3522C38.0318 45.9308 37.5083 45.0834 37.5083 44.1418V40.8622C37.7257 40.5938 37.9553 40.2899 38.1927 39.9561C39.4082 38.2392 40.3831 36.3294 41.094 34.2742C42.4993 33.6066 43.4065 32.2069 43.4065 30.6264V26.6947C43.4065 25.7331 43.0538 24.8004 42.4227 24.0673V18.8911C42.4804 18.3144 42.6845 15.067 40.3343 12.3874C38.2903 10.0539 34.9818 8.87273 30.5 8.87273C26.0182 8.87273 22.7097 10.0539 20.6657 12.3863C18.3155 15.0659 18.5196 18.3155 18.5773 18.89V24.0662C17.9473 24.7993 17.5935 25.732 17.5935 26.6936V30.6253C17.5935 31.8464 18.1414 32.9855 19.0797 33.7541C19.9781 37.2732 21.8269 39.9373 22.5101 40.8401V44.0498C22.5101 44.9548 22.0166 45.7866 21.2213 46.2214L12.4518 51.0049C12.1723 51.1568 11.895 51.3343 11.6177 51.5328C5.85156 46.3511 2.21818 38.8426 2.21818 30.5Z" fill="#C2C2C2"/>
</svg>
