<?xml version="1.0" encoding="utf-8"?><svg xmlns="http://www.w3.org/2000/svg" xmlns:xlink="http://www.w3.org/1999/xlink"><symbol viewBox="0 0 451.846 451.847" id="arrow" xmlns="http://www.w3.org/2000/svg"><path d="M345.441 248.292L151.154 442.573c-12.359 12.365-32.397 12.365-44.75 0-12.354-12.354-12.354-32.391 0-44.744L278.318 225.92 106.409 54.017c-12.354-12.359-12.354-32.394 0-44.748 12.354-12.359 32.391-12.359 44.75 0l194.287 194.284c6.177 6.18 9.262 14.271 9.262 22.366 0 8.099-3.091 16.196-9.267 22.373z"/></symbol><symbol viewBox="0 -12 427.349 427" id="home" xmlns="http://www.w3.org/2000/svg"><path d="M358.672 403.684V190.44l-145-128.832-145 128.832v213.243h87V330.91c0-4.418 3.582-7.226 8-7.226h100c4.418 0 8 2.808 8 7.226v72.774zm0 0"/><path d="M208.352 44.922a8.003 8.003 0 0 1 10.64 0L397.75 204.047l29.598-14.125L213.672.176 0 189.922l29.602 14.125zm0 0"/></symbol><symbol viewBox="0 0 24 24" id="rss" xmlns="http://www.w3.org/2000/svg"><circle cx="3.429" cy="20.571" r="3.429"/><path d="M11.429 24h4.57C15.999 15.179 8.821 8.001 0 8v4.572c6.302.001 11.429 5.126 11.429 11.428z"/><path d="M24 24C24 10.766 13.234 0 0 0v4.571c10.714 0 19.43 8.714 19.43 19.429z"/></symbol><symbol viewBox="0 0 56.966 56.966" id="search" xmlns="http://www.w3.org/2000/svg"><path d="M55.146 51.887L41.588 37.786A22.926 22.926 0 0 0 46.984 23c0-12.682-10.318-23-23-23s-23 10.318-23 23 10.318 23 23 23c4.761 0 9.298-1.436 13.177-4.162l13.661 14.208c.571.593 1.339.92 2.162.92.779 0 1.518-.297 2.079-.837a3.004 3.004 0 0 0 .083-4.242zM23.984 6c9.374 0 17 7.626 17 17s-7.626 17-17 17-17-7.626-17-17 7.626-17 17-17z"/></symbol></svg>